<?xml version="1.0" encoding="utf-8"?>
<!-- Generator: Adobe Illustrator 16.0.0, SVG Export Plug-In . SVG Version: 6.00 Build 0)  -->
<!DOCTYPE svg PUBLIC "-//W3C//DTD SVG 1.1//EN" "http://www.w3.org/Graphics/SVG/1.1/DTD/svg11.dtd">
<svg version="1.1" id="Layer_1" xmlns="http://www.w3.org/2000/svg" xmlns:xlink="http://www.w3.org/1999/xlink" x="0px" y="0px"
	 width="512px" height="512px" viewBox="0 0 512 512" enable-background="new 0 0 512 512" xml:space="preserve">
<path d="M-612,320v96h96v-96H-612z M-529,403h-70v-70h70V403z"/>
<path d="M498,106V16h-90v28H106V16H16v90h27v300H16v90h90v-28h300v28h90v-90h-25V106H498z M420,29h65v65h-65V29z M29,29h65v65H29V29
	z M94,483H29v-65h65V483z M484,483h-66v-65h66V483z M444,406h-38v34H106v-34H68V106h38V68h302v38h36V406z"/>
</svg>
